<svg width="85" height="85" viewBox="0 0 85 85" fill="none" xmlns="http://www.w3.org/2000/svg">
<path d="M3.22656 0H84.892V80.8546H3.22656V0Z" fill="url(#paint0_radial_27_75)"/>
<path d="M3.54309 3.81133H81.4739V80.6301H3.54309V3.81133ZM0 84.2207H85V0.220703H0V84.2207ZM57.3196 34.6942C54.5261 34.6942 53.5721 36.127 53.5721 37.3181C53.5721 38.6128 54.2024 39.5105 57.9669 41.4784C63.52 44.2059 65.2575 46.8298 65.2575 50.6621C65.2575 56.4106 60.9309 59.5006 55.0882 59.5006C52.005 59.5006 49.3477 58.8619 47.8317 57.9642C47.5762 57.8607 47.5421 57.6708 47.5421 57.3946V52.0949C47.5421 51.7324 47.7124 51.6288 47.9679 51.8015C50.1994 53.2688 52.7545 53.9248 55.0882 53.9248C57.8818 53.9248 59.0571 52.7337 59.0571 51.1282C59.0571 49.8335 58.2395 48.6942 54.6623 46.8126C49.6373 44.3785 47.5421 41.91 47.5421 37.7669C47.5421 33.1406 51.1192 29.291 57.3196 29.291C60.3687 29.291 62.498 29.7571 63.6563 30.2922C63.9459 30.4648 64.014 30.7583 64.014 31.0173V35.9371C64.014 36.2306 63.8437 36.4032 63.486 36.2996C61.9188 35.2984 59.6192 34.6942 57.3196 34.6942ZM26.8627 38.9581C27.6804 39.0271 28.3106 39.0271 29.7244 39.0271C33.8637 39.0271 37.7645 37.5598 37.7645 31.8459C37.7645 27.2885 34.9709 24.9926 30.2525 24.9926C28.8387 24.9926 27.493 25.0616 26.8457 25.0962L26.8627 38.9581ZM20.5431 19.9001C20.5431 19.6412 21.0371 19.4685 21.3267 19.4685C23.5922 19.365 26.9649 19.2959 30.4569 19.2959C40.2685 19.2959 44.1012 24.7509 44.1012 31.7078C44.1012 40.8224 37.5772 44.741 29.5711 44.741C28.2255 44.741 27.7655 44.672 26.8116 44.672V58.4476C26.8116 58.741 26.7094 58.8792 26.3858 58.8792H20.9689C20.6794 58.8792 20.5431 58.7756 20.5431 58.4476V19.9001Z" fill="#31C5F0"/>
<defs>
<radialGradient id="paint0_radial_27_75" cx="0" cy="0" r="1" gradientUnits="userSpaceOnUse" gradientTransform="translate(30.131 18.1398) scale(62.0565 61.1565)">
<stop/>
<stop offset="1" stop-color="#0C0824"/>
</radialGradient>
</defs>
</svg>
