<svg width="59" height="89" viewBox="0 0 59 89" fill="none" xmlns="http://www.w3.org/2000/svg">
<g clip-path="url(#clip0_27_87)">
<path d="M15.211 88.9913C23.2495 88.9913 29.7696 82.3515 29.7696 74.1655V59.3398H15.211C7.17247 59.3398 0.652344 65.9796 0.652344 74.1655C0.652344 82.3515 7.17247 88.9913 15.211 88.9913Z" fill="#0ACF83"/>
<path d="M0.652344 44.4956C0.652344 36.3097 7.17247 29.6699 15.211 29.6699H29.7696V59.3395H15.211C7.17247 59.3213 0.652344 52.6816 0.652344 44.4956Z" fill="#A259FF"/>
<path d="M0.652344 14.8257C0.652344 6.63973 7.17247 0 15.211 0H29.7696V29.6696H15.211C7.17247 29.6696 0.652344 23.0117 0.652344 14.8257Z" fill="#F24E1E"/>
<path d="M29.7871 0H44.3458C52.3843 0 58.9044 6.63973 58.9044 14.8257C58.9044 23.0117 52.3843 29.6514 44.3458 29.6514H29.7871V0Z" fill="#FF7262"/>
<path d="M58.9044 44.4956C58.9044 52.6816 52.3843 59.3213 44.3458 59.3213C36.3072 59.3213 29.7871 52.6816 29.7871 44.4956C29.7871 36.3097 36.3072 29.6699 44.3458 29.6699C52.3843 29.6699 58.9044 36.3097 58.9044 44.4956Z" fill="#1ABCFE"/>
</g>
<defs>
<clipPath id="clip0_27_87">
<rect width="58.2524" height="88.9906" fill="white" transform="translate(0.652344)"/>
</clipPath>
</defs>
</svg>
