<svg width="167" height="26" viewBox="0 0 167 26" fill="none" xmlns="http://www.w3.org/2000/svg">
<path d="M12.0853 2.91817C12.3851 1.9979 13.687 1.9979 13.9869 2.91817L15.738 8.29257C15.8721 8.7042 16.2559 8.98278 16.6888 8.98278H22.3495C23.3189 8.98278 23.7213 10.2238 22.9363 10.7926L18.3614 14.1072C18.0099 14.3619 17.8629 14.8141 17.9973 15.2268L19.7459 20.5934C20.0459 21.5143 18.9926 22.2812 18.2084 21.713L13.6228 18.3907C13.2728 18.137 12.7994 18.137 12.4494 18.3907L7.86382 21.713C7.07956 22.2812 6.02627 21.5143 6.3263 20.5934L8.07487 15.2268C8.20932 14.8141 8.06224 14.3619 7.71078 14.1072L3.13591 10.7926C2.3509 10.2238 2.75323 8.98278 3.72263 8.98278H9.38338C9.81631 8.98278 10.2001 8.7042 10.3342 8.29257L12.0853 2.91817Z" fill="#CE00F0"/>
<path d="M47.1829 2.91817C47.4828 1.9979 48.7847 1.9979 49.0845 2.91817L50.8356 8.29257C50.9698 8.7042 51.3535 8.98278 51.7864 8.98278H57.4472C58.4166 8.98278 58.8189 10.2238 58.0339 10.7926L53.459 14.1072C53.1076 14.3619 52.9605 14.8141 53.095 15.2268L54.8435 20.5934C55.1436 21.5143 54.0903 22.2812 53.306 21.713L48.7205 18.3907C48.3704 18.137 47.8971 18.137 47.547 18.3907L42.9615 21.713C42.1772 22.2812 41.1239 21.5143 41.424 20.5934L43.1725 15.2268C43.307 14.8141 43.1599 14.3619 42.8084 14.1072L38.2336 10.7926C37.4486 10.2238 37.8509 8.98278 38.8203 8.98278H44.481C44.914 8.98278 45.2977 8.7042 45.4318 8.29257L47.1829 2.91817Z" fill="#CE00F0"/>
<path d="M82.2786 2.91817C82.5785 1.9979 83.8804 1.9979 84.1803 2.91817L85.9313 8.29257C86.0655 8.7042 86.4492 8.98278 86.8821 8.98278H92.5429C93.5123 8.98278 93.9146 10.2238 93.1296 10.7926L88.5547 14.1072C88.2033 14.3619 88.0562 14.8141 88.1907 15.2268L89.9392 20.5934C90.2393 21.5143 89.186 22.2812 88.4017 21.713L83.8162 18.3907C83.4661 18.137 82.9928 18.137 82.6427 18.3907L78.0572 21.713C77.2729 22.2812 76.2196 21.5143 76.5197 20.5934L78.2682 15.2268C78.4027 14.8141 78.2556 14.3619 77.9041 14.1072L73.3293 10.7926C72.5443 10.2238 72.9466 8.98278 73.916 8.98278H79.5767C80.0097 8.98278 80.3934 8.7042 80.5275 8.29257L82.2786 2.91817Z" fill="#CE00F0"/>
<path d="M117.376 2.91817C117.676 1.9979 118.978 1.9979 119.278 2.91817L121.029 8.29257C121.163 8.7042 121.547 8.98278 121.98 8.98278H127.641C128.61 8.98278 129.012 10.2238 128.227 10.7926L123.652 14.1072C123.301 14.3619 123.154 14.8141 123.288 15.2268L125.037 20.5934C125.337 21.5143 124.284 22.2812 123.499 21.713L118.914 18.3907C118.564 18.137 118.09 18.137 117.74 18.3907L113.155 21.713C112.371 22.2812 111.317 21.5143 111.617 20.5934L113.366 15.2268C113.5 14.8141 113.353 14.3619 113.002 14.1072L108.427 10.7926C107.642 10.2238 108.044 8.98278 109.014 8.98278H114.674C115.107 8.98278 115.491 8.7042 115.625 8.29257L117.376 2.91817Z" fill="#CE00F0"/>
<path d="M152.474 2.91817C152.774 1.9979 154.076 1.9979 154.376 2.91817L156.127 8.29257C156.261 8.7042 156.645 8.98278 157.077 8.98278H162.738C163.708 8.98278 164.11 10.2238 163.325 10.7926L158.75 14.1072C158.399 14.3619 158.252 14.8141 158.386 15.2268L160.135 20.5934C160.435 21.5143 159.381 22.2812 158.597 21.713L154.011 18.3907C153.661 18.137 153.188 18.137 152.838 18.3907L148.252 21.713C147.468 22.2812 146.415 21.5143 146.715 20.5934L148.464 15.2268C148.598 14.8141 148.451 14.3619 148.099 14.1072L143.525 10.7926C142.74 10.2238 143.142 8.98278 144.111 8.98278H149.772C150.205 8.98278 150.589 8.7042 150.723 8.29257L152.474 2.91817Z" fill="#CE00F0"/>
</svg>
