<svg width="167" height="27" viewBox="0 0 167 27" fill="none" xmlns="http://www.w3.org/2000/svg">
<path d="M12.0853 3.2131C12.3851 2.29282 13.687 2.29282 13.9869 3.2131L15.738 8.58749C15.8721 8.99912 16.2559 9.2777 16.6888 9.2777H22.3495C23.3189 9.2777 23.7213 10.5187 22.9363 11.0875L18.3614 14.4021C18.0099 14.6568 17.8629 15.1091 17.9973 15.5217L19.7459 20.8884C20.0459 21.8092 18.9926 22.5762 18.2084 22.0079L13.6228 18.6856C13.2728 18.432 12.7994 18.432 12.4494 18.6856L7.86382 22.0079C7.07956 22.5762 6.02627 21.8092 6.3263 20.8884L8.07487 15.5217C8.20932 15.1091 8.06224 14.6568 7.71078 14.4021L3.13591 11.0875C2.3509 10.5187 2.75323 9.2777 3.72263 9.2777H9.38338C9.81631 9.2777 10.2001 8.99912 10.3342 8.58749L12.0853 3.2131Z" fill="#CE00F0"/>
<path d="M47.1829 3.2131C47.4828 2.29282 48.7847 2.29282 49.0845 3.2131L50.8356 8.58749C50.9698 8.99912 51.3535 9.2777 51.7864 9.2777H57.4472C58.4166 9.2777 58.8189 10.5187 58.0339 11.0875L53.459 14.4021C53.1076 14.6568 52.9605 15.1091 53.095 15.5217L54.8435 20.8884C55.1436 21.8092 54.0903 22.5762 53.306 22.0079L48.7205 18.6856C48.3704 18.432 47.8971 18.432 47.547 18.6856L42.9615 22.0079C42.1772 22.5762 41.1239 21.8092 41.424 20.8884L43.1725 15.5217C43.307 15.1091 43.1599 14.6568 42.8084 14.4021L38.2336 11.0875C37.4486 10.5187 37.8509 9.2777 38.8203 9.2777H44.481C44.914 9.2777 45.2977 8.99912 45.4318 8.58749L47.1829 3.2131Z" fill="#CE00F0"/>
<path d="M82.2786 3.2131C82.5785 2.29282 83.8804 2.29282 84.1803 3.2131L85.9313 8.58749C86.0655 8.99912 86.4492 9.2777 86.8821 9.2777H92.5429C93.5123 9.2777 93.9146 10.5187 93.1296 11.0875L88.5547 14.4021C88.2033 14.6568 88.0562 15.1091 88.1907 15.5217L89.9392 20.8884C90.2393 21.8092 89.186 22.5762 88.4017 22.0079L83.8162 18.6856C83.4661 18.432 82.9928 18.432 82.6427 18.6856L78.0572 22.0079C77.2729 22.5762 76.2196 21.8092 76.5197 20.8884L78.2682 15.5217C78.4027 15.1091 78.2556 14.6568 77.9041 14.4021L73.3293 11.0875C72.5443 10.5187 72.9466 9.2777 73.916 9.2777H79.5767C80.0097 9.2777 80.3934 8.99912 80.5275 8.58749L82.2786 3.2131Z" fill="#CE00F0"/>
<path d="M117.376 3.2131C117.676 2.29282 118.978 2.29282 119.278 3.2131L121.029 8.58749C121.163 8.99912 121.547 9.2777 121.98 9.2777H127.641C128.61 9.2777 129.012 10.5187 128.227 11.0875L123.652 14.4021C123.301 14.6568 123.154 15.1091 123.288 15.5217L125.037 20.8884C125.337 21.8092 124.284 22.5762 123.499 22.0079L118.914 18.6856C118.564 18.432 118.09 18.432 117.74 18.6856L113.155 22.0079C112.371 22.5762 111.317 21.8092 111.617 20.8884L113.366 15.5217C113.5 15.1091 113.353 14.6568 113.002 14.4021L108.427 11.0875C107.642 10.5187 108.044 9.2777 109.014 9.2777H114.674C115.107 9.2777 115.491 8.99912 115.625 8.58749L117.376 3.2131Z" fill="#CE00F0"/>
<path d="M152.474 3.2131C152.774 2.29282 154.076 2.29282 154.376 3.2131L156.127 8.58749C156.261 8.99912 156.645 9.2777 157.077 9.2777H162.738C163.708 9.2777 164.11 10.5187 163.325 11.0875L158.75 14.4021C158.399 14.6568 158.252 15.1091 158.386 15.5217L160.135 20.8884C160.435 21.8092 159.381 22.5762 158.597 22.0079L154.011 18.6856C153.661 18.432 153.188 18.432 152.838 18.6856L148.252 22.0079C147.468 22.5762 146.415 21.8092 146.715 20.8884L148.464 15.5217C148.598 15.1091 148.451 14.6568 148.099 14.4021L143.525 11.0875C142.74 10.5187 143.142 9.2777 144.111 9.2777H149.772C150.205 9.2777 150.589 8.99912 150.723 8.58749L152.474 3.2131Z" fill="#E5E5E5"/>
</svg>
